<svg width="112" height="64" viewBox="0 0 112 64" fill="none" xmlns="http://www.w3.org/2000/svg">
<path d="M11.8127 11.2953L8.32471 19.6838L20.4959 10.3257L11.8127 11.2953Z" fill="#00659C"/>
<path d="M8.32471 19.6838L15.1479 28.1182L20.4959 10.3257L8.32471 19.6838Z" fill="#0D89CB"/>
<path d="M3.0808 19.4271L0 26.5478L15.1479 28.1182L8.32469 19.6838L3.0808 19.4271Z" fill="#00659C"/>
<path d="M0 26.5478L5.47668 32.7598L15.1479 28.1182L0 26.5478Z" fill="#0D89CB"/>
<path d="M5.47668 32.7598L15.1479 28.1182L18.3361 36.1403L5.47668 32.7598Z" fill="#00659C"/>
<path d="M15.1479 28.1182L18.3361 36.1403L30.1489 30.1459L15.1479 28.1182Z" fill="#0D89CB"/>
<path d="M18.3361 36.1403L29.1497 43.663L30.1488 30.1459L18.3361 36.1403Z" fill="#00659C"/>
<path d="M18.3361 36.1403L23.9952 46.3225L29.1497 43.663L18.3361 36.1403Z" fill="#0D89CB"/>
<path d="M23.9952 46.3225L29.1498 43.663L39.1404 56.1613L23.9952 46.3225Z" fill="#00659C"/>
<path d="M34.964 50.9361L39.1404 56.1613L44.6702 50.081L45.4544 46.9428L34.964 50.9361Z" fill="#0D89CB"/>
<path d="M45.4544 46.9428L51.3378 54.9183L50.1337 64L44.6702 50.081L45.4544 46.9428Z" fill="#00659C"/>
<path d="M51.3378 54.9183L50.1337 64L65.5119 62.7625L51.3378 54.9183Z" fill="#0D89CB"/>
<path d="M51.3378 54.9183L57.3983 44.2115L65.5119 62.7625L51.3378 54.9183Z" fill="#00659C"/>
<path d="M57.3983 44.2115L65.512 62.7625L68.8696 52.1728L57.3983 44.2115Z" fill="#0D89CB"/>
<path d="M57.3983 44.2115L66.2528 47.2672L68.8696 38.9679L57.3983 44.2115Z" fill="#0D89CB"/>
<path d="M57.3983 44.2115L68.8696 52.1728L66.2528 47.2672L57.3983 44.2115Z" fill="#00659C"/>
<path d="M61.9934 7.26346L71.1662 19.6838L71.9946 14.5196L61.9934 7.26346Z" fill="#0D89CB"/>
<path d="M61.9934 7.26349L71.9946 14.5196L72.7793 9.71049L61.9934 7.26349Z" fill="#00659C"/>
<path d="M72.7793 9.7105L71.9946 14.5196L81.1806 16.6196L72.7793 9.7105Z" fill="#0D89CB"/>
<path d="M71.9946 14.5196L71.1661 19.6838L81.1805 16.6196L71.9946 14.5196Z" fill="#00659C"/>
<path d="M71.1661 19.6838L59.9852 18.311L66.4675 13.3217L71.1661 19.6838Z" fill="#00659C"/>
<path d="M24.4701 4.40939L30.3543 -1.43051e-05L33.0003 1.79763L24.4701 4.40939Z" fill="#00659C"/>
<path d="M30.3542 -7.86781e-06L33.0003 1.79764L41.5978 0.922659L30.3542 -7.86781e-06Z" fill="#0D89CB"/>
<path d="M41.5979 0.922665L34.8809 3.70306L33.0004 1.79764L41.5979 0.922665Z" fill="#00659C"/>
<path d="M34.8809 3.70307L44.474 5.43326L41.5979 0.922668L34.8809 3.70307Z" fill="#0D89CB"/>
<path d="M41.5979 0.922666L44.4741 5.43326L55.793 7.9198L41.5979 0.922666Z" fill="#00659C"/>
<path d="M44.474 5.43324L45.3893 8.00778L55.7929 7.91978L44.474 5.43324Z" fill="#0D89CB"/>
<path d="M45.3893 8.00784L50.3833 9.31042L55.7929 7.91984L45.3893 8.00784Z" fill="#00659C"/>
<path d="M50.3833 9.3104L58.8962 11.4639L55.7929 7.91981L50.3833 9.3104Z" fill="#0D89CB"/>
<path d="M50.3833 9.3104L48.5271 13.4736L58.8962 11.4639L50.3833 9.3104Z" fill="#00659C"/>
<path d="M0 26.5478L8.32469 19.6838L3.0808 19.4271L0 26.5478Z" fill="#0D89CB"/>
<path d="M54.6629 29.8436H57.2037V35.6075C55.6956 36.8263 53.5886 37.4459 51.5432 37.4459C47.0606 37.4459 43.7552 34.3264 43.7552 30.0088C43.7552 25.6912 47.0606 22.5719 51.5843 22.5719C54.0015 22.5719 56.0263 23.3775 57.3898 24.9267L55.6956 26.5796C54.5593 25.4432 53.2579 24.9267 51.7084 24.9267C48.6303 24.9267 46.4612 27.0134 46.4612 30.0088C46.4612 32.9423 48.6303 35.0908 51.6882 35.0908C52.721 35.0908 53.7332 34.8841 54.6629 34.3473V29.8436Z" fill="#0D89CB"/>
<path d="M60.7346 22.7786H63.4204V34.967H70.9816L69.9682 37.2392H60.7346V22.7786Z" fill="#0D89CB"/>
<path d="M81.702 31.7854L78.9751 25.4641L76.2687 31.7854H81.702ZM82.5901 33.8925H75.3596L73.9341 37.2392H71.1661L77.6736 22.7786H80.3176L86.8456 37.2392H84.0365L82.5901 33.8925Z" fill="#0D89CB"/>
<path d="M87.4644 35.7105L88.3936 33.6242C89.5508 34.5535 91.3892 35.215 93.1663 35.215C95.4179 35.215 96.3681 34.4089 96.3681 33.3349C96.3681 30.2155 87.7741 32.2606 87.7741 26.8894C87.7741 24.5549 89.633 22.5719 93.5997 22.5719C95.3349 22.5719 97.1531 23.0263 98.4131 23.8524L97.566 25.9392C96.265 25.1748 94.8391 24.8026 93.5792 24.8026C91.3477 24.8026 90.4394 25.6706 90.4394 26.7654C90.4394 29.8436 99.0124 27.8396 99.0124 33.149C99.0124 35.4629 97.1326 37.4459 93.1663 37.4459C90.9143 37.4459 88.6627 36.7433 87.4644 35.7105Z" fill="#0D89CB"/>
<path d="M100.457 35.7105L101.387 33.6242C102.544 34.5535 104.382 35.215 106.159 35.215C108.411 35.215 109.361 34.4089 109.361 33.3349C109.361 30.2155 100.767 32.2606 100.767 26.8894C100.767 24.5549 102.626 22.5719 106.593 22.5719C108.328 22.5719 110.146 23.0263 111.407 23.8524L110.559 25.9392C109.258 25.1748 107.832 24.8026 106.572 24.8026C104.341 24.8026 103.432 25.6706 103.432 26.7654C103.432 29.8436 112.005 27.8396 112.005 33.149C112.005 35.4629 110.126 37.4459 106.159 37.4459C103.908 37.4459 101.656 36.7433 100.457 35.7105Z" fill="#0D89CB"/>
<path d="M76.7603 44.0747C76.7603 41.585 78.661 39.7691 81.2224 39.7691C82.5215 39.7691 83.6519 40.2142 84.4215 41.0799L83.6395 41.8374C82.9906 41.152 82.1966 40.8394 81.2705 40.8394C79.3705 40.8394 77.9632 42.2104 77.9632 44.0747C77.9632 45.939 79.3705 47.3098 81.2705 47.3098C82.1966 47.3098 82.9906 46.985 83.6395 46.2994L84.4215 47.0571C83.6519 47.9231 82.5215 48.3802 81.2104 48.3802C78.661 48.3802 76.7603 46.5643 76.7603 44.0747Z" fill="#292827"/>
<path d="M89.0177 46.2387L87.807 43.488L86.5956 46.2387H89.0177ZM89.298 46.8806H86.3149L85.6977 48.2837H84.8716L87.4135 42.6705H88.2079L90.758 48.2837H89.916L89.298 46.8806Z" fill="#292827"/>
<path d="M95.3202 44.6271C95.3202 43.825 94.7832 43.368 93.7563 43.368H92.3936V45.8936H93.7563C94.7832 45.8936 95.3202 45.4288 95.3202 44.6271ZM95.3446 48.2837L94.1335 46.5596C94.0211 46.5678 93.9005 46.576 93.7807 46.576H92.3936V48.2837H91.5911V42.6705H93.7807C95.2399 42.6705 96.1227 43.4078 96.1227 44.6271C96.1227 45.4932 95.6734 46.1185 94.8871 46.3991L96.2188 48.2837H95.3446Z" fill="#292827"/>
<path d="M97.4206 42.6705H98.2227V48.2837H97.4206V42.6705Z" fill="#292827"/>
<path d="M103.925 46.7039C103.925 46.0541 103.444 45.7656 102.553 45.7656H100.708V47.6344H102.553C103.444 47.6344 103.925 47.3536 103.925 46.7039ZM100.708 43.3198V45.1163H102.352C103.17 45.1163 103.636 44.8113 103.636 44.2181C103.636 43.6245 103.17 43.3198 102.352 43.3198H100.708ZM104.734 46.7678C104.734 47.7308 104.004 48.2837 102.585 48.2837H99.9064V42.6705H102.425C103.716 42.6705 104.437 43.2156 104.437 44.122C104.437 44.7313 104.125 45.1563 103.684 45.373C104.317 45.5494 104.734 46.0223 104.734 46.7678Z" fill="#292827"/>
<path d="M110.051 47.5862V48.2837H105.977V42.6705H109.938V43.368H106.779V45.0923H109.594V45.7738H106.779V47.5862H110.051Z" fill="#292827"/>
</svg>
