<svg width="512" height="512" viewBox="0 0 512 512" fill="none" xmlns="http://www.w3.org/2000/svg">
  <!-- White background -->
  <rect width="512" height="512" fill="#FFFFFF"/>
  <!-- Glass Caribe symbol centered: original symbol is ~72x64, scale to fit 420x420 centered at (46,46) -->
  <g transform="translate(46, 46) scale(5.83)">
    <path d="M11.8127 11.2953L8.32471 19.6838L20.4959 10.3257L11.8127 11.2953Z" fill="#00659C"/>
    <path d="M8.32471 19.6838L15.1479 28.1182L20.4959 10.3257L8.32471 19.6838Z" fill="#0D89CB"/>
    <path d="M3.0808 19.4271L0 26.5478L15.1479 28.1182L8.32469 19.6838L3.0808 19.4271Z" fill="#00659C"/>
    <path d="M0 26.5478L5.47668 32.7598L15.1479 28.1182L0 26.5478Z" fill="#0D89CB"/>
    <path d="M5.47668 32.7598L15.1479 28.1182L18.3361 36.1403L5.47668 32.7598Z" fill="#00659C"/>
    <path d="M15.1479 28.1182L18.3361 36.1403L30.1489 30.1459L15.1479 28.1182Z" fill="#0D89CB"/>
    <path d="M18.3361 36.1403L29.1497 43.663L30.1488 30.1459L18.3361 36.1403Z" fill="#00659C"/>
    <path d="M18.3361 36.1403L23.9952 46.3225L29.1497 43.663L18.3361 36.1403Z" fill="#0D89CB"/>
    <path d="M23.9952 46.3225L29.1498 43.663L39.1404 56.1613L23.9952 46.3225Z" fill="#00659C"/>
    <path d="M34.964 50.9361L39.1404 56.1613L44.6702 50.081L45.4544 46.9428L34.964 50.9361Z" fill="#0D89CB"/>
    <path d="M45.4544 46.9428L51.3378 54.9183L50.1337 64L44.6702 50.081L45.4544 46.9428Z" fill="#00659C"/>
    <path d="M51.3378 54.9183L50.1337 64L65.5119 62.7625L51.3378 54.9183Z" fill="#0D89CB"/>
    <path d="M51.3378 54.9183L57.3983 44.2115L65.5119 62.7625L51.3378 54.9183Z" fill="#00659C"/>
    <path d="M57.3983 44.2115L65.512 62.7625L68.8696 52.1728L57.3983 44.2115Z" fill="#0D89CB"/>
    <path d="M57.3983 44.2115L66.2528 47.2672L68.8696 38.9679L57.3983 44.2115Z" fill="#0D89CB"/>
    <path d="M57.3983 44.2115L68.8696 52.1728L66.2528 47.2672L57.3983 44.2115Z" fill="#00659C"/>
    <path d="M61.9934 7.26346L71.1662 19.6838L71.9946 14.5196L61.9934 7.26346Z" fill="#0D89CB"/>
    <path d="M61.9934 7.26349L71.9946 14.5196L72.7793 9.71049L61.9934 7.26349Z" fill="#00659C"/>
    <path d="M72.7793 9.7105L71.9946 14.5196L81.1806 16.6196L72.7793 9.7105Z" fill="#0D89CB"/>
    <path d="M71.9946 14.5196L71.1661 19.6838L81.1805 16.6196L71.9946 14.5196Z" fill="#00659C"/>
    <path d="M71.1661 19.6838L59.9852 18.311L66.4675 13.3217L71.1661 19.6838Z" fill="#00659C"/>
    <path d="M24.4701 4.40939L30.3543 -1.43051e-05L33.0003 1.79763L24.4701 4.40939Z" fill="#00659C"/>
    <path d="M30.3542 -7.86781e-06L33.0003 1.79764L41.5978 0.922659L30.3542 -7.86781e-06Z" fill="#0D89CB"/>
    <path d="M41.5979 0.922665L34.8809 3.70306L33.0004 1.79764L41.5979 0.922665Z" fill="#00659C"/>
    <path d="M34.8809 3.70307L44.474 5.43326L41.5979 0.922668L34.8809 3.70307Z" fill="#0D89CB"/>
    <path d="M41.5979 0.922666L44.4741 5.43326L55.793 7.9198L41.5979 0.922666Z" fill="#00659C"/>
    <path d="M44.474 5.43324L45.3893 8.00778L55.7929 7.91978L44.474 5.43324Z" fill="#0D89CB"/>
    <path d="M45.3893 8.00784L50.3833 9.31042L55.7929 7.91984L45.3893 8.00784Z" fill="#00659C"/>
    <path d="M50.3833 9.3104L58.8962 11.4639L55.7929 7.91981L50.3833 9.3104Z" fill="#0D89CB"/>
    <path d="M50.3833 9.3104L48.5271 13.4736L58.8962 11.4639L50.3833 9.3104Z" fill="#00659C"/>
    <path d="M0 26.5478L8.32469 19.6838L3.0808 19.4271L0 26.5478Z" fill="#0D89CB"/>
  </g>
</svg>
